<svg width="221" height="6" viewBox="0 0 221 6" fill="none" xmlns="http://www.w3.org/2000/svg">
<path d="M220.987 3.59038C220.93 3.25446 220.798 2.97051 220.619 2.79952C220.575 2.75721 220.529 2.72207 220.48 2.69454C220.442 2.66753 220.402 2.64644 220.362 2.63154L220.215 2.58256L219.998 2.52656C218.98 2.36559 218.053 2.3306 217.084 2.26761L214.223 2.14163L208.444 1.99466L193.926 1.81268L196.583 1.67971H197.069C200.077 1.53973 199.019 1.28078 199.93 1.07781C204.091 0.167972 200.805 -0.111982 188.364 0.041991C185.654 0.041991 182.785 0.041991 180.022 0.041991L156.369 0L132.836 0.153974L87.411 0.0699868L64.7028 0.0279958H53.3242C49.5436 0.0279958 45.7548 0.0279947 41.966 0.0979826C37.5791 0.167971 33.1922 0.268287 28.8054 0.398931L22.221 0.636892L18.9227 0.818857L18.1052 0.881849L17.6965 0.92384L17.4676 0.958836H17.3368H17.2387L17.1325 1.00783C17.3205 1.41376 16.5194 0.0419879 16.8055 3.17745C17.0998 3.59037 17.1611 3.50639 17.1856 3.54139H17.2674H17.3614H17.4922H17.7169H18.1257H18.9431C23.3654 3.66037 27.7305 3.64637 32.1241 3.66737H36.9429C31.2209 3.69536 25.4989 3.73735 19.7769 3.79334C13.8628 3.85633 8.97862 4.0593 5.54133 4.35325C2.10404 4.6472 0.121767 5.01113 0.00323988 5.42406C-0.221553 6.23592 11.3042 5.96297 18.0807 5.92798C39.7698 5.73201 61.4821 5.68535 83.2176 5.788L148.44 5.94198C167.241 5.99097 196.55 5.94198 204.843 5.823L209.339 5.74601C211.203 5.74601 213.083 5.74601 214.975 5.65502C215.921 5.62236 216.874 5.57104 217.836 5.50105C218.314 5.50105 218.792 5.43106 219.279 5.36807C219.524 5.36807 219.761 5.31208 220.031 5.25609C220.088 5.25609 220.174 5.22109 220.256 5.2001H220.313H220.346L220.44 5.1581C220.498 5.12335 220.556 5.08125 220.611 5.03213L220.693 4.95514C220.767 4.83616 221.065 4.79417 220.987 3.59038ZM105.668 3.76535C96.1698 3.79335 86.6426 3.79335 77.0869 3.76535H97.9313H110.749H105.668Z" fill="#FFD803"/>
</svg>
